<svg id="Layer_1" data-name="Layer 1" xmlns="http://www.w3.org/2000/svg" viewBox="0 0 512 512"><defs><style>.cls-1{fill:#e0e0e0;}.cls-2{fill:#c1c1c1;}.cls-3{fill:#d4e1f4;}.cls-4{fill:#fff;}.cls-5{fill:#6d6d6d;}.cls-6{fill:#a4a4a5;}</style></defs><title>briefcase</title><path class="cls-1" d="M34.13,187.73H477.87a25.61,25.61,0,0,1,25.6,25.6V477.87a25.61,25.61,0,0,1-25.6,25.6H34.13a25.6,25.6,0,0,1-25.59-25.6V213.33A25.6,25.6,0,0,1,34.13,187.73Z" transform="translate(0 0)"/><path class="cls-2" d="M503.47,213.33v102.4H8.54V213.33a25.6,25.6,0,0,1,25.59-25.6H477.87A25.61,25.61,0,0,1,503.47,213.33Z" transform="translate(0 0)"/><path class="cls-1" d="M477.87,213.33v102.4H8.54V213.33a25.6,25.6,0,0,1,25.59-25.6H452.27A25.6,25.6,0,0,1,477.87,213.33Z" transform="translate(0 0)"/><path class="cls-3" d="M386.73,59.31l-8.28-37.38A17.11,17.11,0,0,0,361.81,8.54H170.67A17.11,17.11,0,0,0,153.6,25.6v101a27.29,27.29,0,0,0,13,23.38,23.41,23.41,0,0,0,11.27,3.58,25.6,25.6,0,0,0,27-25.6,25.6,25.6,0,1,0,51.2,0,25.6,25.6,0,0,0,25.6,25.6,26.16,26.16,0,0,0,12.88-3.41A25.78,25.78,0,0,0,307.2,128a25.3,25.3,0,0,0,12.71,22,24.57,24.57,0,0,0,14.25,3.58,26.61,26.61,0,0,0,24.24-27V102.4l10.33-5.12A34.13,34.13,0,0,0,386.73,59.31Z" transform="translate(0 0)"/><path class="cls-2" d="M368.73,97.28,358.4,102.4v24.24a26.61,26.61,0,0,1-24.24,27A24.57,24.57,0,0,1,319.91,150a27.68,27.68,0,0,0,12.89-23.38V102.4l10.32-5.12a34.12,34.12,0,0,0,18-38l-8.27-37.38A17.13,17.13,0,0,0,336.21,8.54h25.6a17.11,17.11,0,0,1,16.64,13.39l8.28,37.38A34.13,34.13,0,0,1,368.73,97.28Z" transform="translate(0 0)"/><path class="cls-1" d="M343.12,97.28,332.8,102.4v24.24A27.68,27.68,0,0,1,319.91,150a25.3,25.3,0,0,1-12.71-22,25.78,25.78,0,0,1-12.72,22.19,26.16,26.16,0,0,1-12.88,3.41A25.6,25.6,0,0,1,256,128a25.6,25.6,0,1,1-51.2,0,25.6,25.6,0,0,1-27,25.6A23.41,23.41,0,0,1,166.57,150a27.29,27.29,0,0,1-13-23.38V25.6A17.11,17.11,0,0,1,170.67,8.54H336.21a17.13,17.13,0,0,1,16.65,13.39l8.27,37.38A34.12,34.12,0,0,1,343.12,97.28Z" transform="translate(0 0)"/><path class="cls-4" d="M310.94,358.4H201.06a17.07,17.07,0,0,1-16.56-12.93l-11.18-44.73a8.54,8.54,0,0,1,8.28-10.61H330.4a8.54,8.54,0,0,1,8.28,10.61L327.5,345.47A17.07,17.07,0,0,1,310.94,358.4Z" transform="translate(0 0)"/><path class="cls-1" d="M281.6,358.4v34.14a25.34,25.34,0,0,1-17.06,24.06,24.57,24.57,0,0,1-17.07,0,25.33,25.33,0,0,1-17.07-24.06V358.4Z" transform="translate(0 0)"/><path class="cls-4" d="M34.13,503.47h25.6a25.6,25.6,0,0,1-25.6-25.6V213.33a25.6,25.6,0,0,1,25.6-25.6H34.13a25.6,25.6,0,0,0-25.59,25.6V477.87A25.6,25.6,0,0,0,34.13,503.47Z" transform="translate(0 0)"/><path class="cls-4" d="M166.57,150a23.41,23.41,0,0,0,11.27,3.58A25.53,25.53,0,0,0,192,150.19c.08-.05.13-.12.21-.15a27.31,27.31,0,0,1-13-23.4V25.6A17.11,17.11,0,0,1,196.27,8.54h-25.6A17.11,17.11,0,0,0,153.6,25.6v101A27.29,27.29,0,0,0,166.57,150Z" transform="translate(0 0)"/><path class="cls-4" d="M0,477.87V213.33H17.07V477.87Z" transform="translate(0 0)"/><path class="cls-5" d="M5.29,417.45a5.49,5.49,0,0,0,1.54.52,13.75,13.75,0,0,0,1.71.16,8.93,8.93,0,0,0,6.05-2.47,8.79,8.79,0,0,0,1.79-2.82,8.7,8.7,0,0,0-1.79-9.3,8.74,8.74,0,0,0-2.81-1.79,8.44,8.44,0,0,0-3.24-.68,8.92,8.92,0,0,0-6.06,2.47,8.66,8.66,0,0,0,0,12.12l1.27,1A6.17,6.17,0,0,0,5.29,417.45Z" transform="translate(0 0)"/><path class="cls-6" d="M477.87,179.2h-76.8V145.07a51.32,51.32,0,0,0-23.7-43.1,42.48,42.48,0,0,0,17.72-44.51l-8.32-37.41a25.46,25.46,0,0,0-25-20H170.67a25.6,25.6,0,0,0-25.6,25.6V96.91a51.27,51.27,0,0,0-34.14,48.16V179.2H34.13A34.13,34.13,0,0,0,0,213.33V375.47a8.54,8.54,0,0,0,17.07,0v-51.2H170.4l5.82,23.28a25.6,25.6,0,0,0,24.84,19.38h20.81v25.61a34.13,34.13,0,0,0,68.26,0V366.93h20.81a25.59,25.59,0,0,0,24.84-19.38l5.82-23.28H494.93v153.6a17.06,17.06,0,0,1-17.06,17.06H409.6V409.6a8.53,8.53,0,1,0-17.06,0v85.33H119.47V409.6a8.54,8.54,0,0,0-17.07,0v85.33H34.13a17.06,17.06,0,0,1-17.06-17.06V443.73a8.54,8.54,0,0,0-17.07,0v34.14A34.13,34.13,0,0,0,34.13,512H477.87A34.13,34.13,0,0,0,512,477.87V213.33A34.13,34.13,0,0,0,477.87,179.2ZM162.13,25.6a8.53,8.53,0,0,1,8.54-8.53H361.81a8.6,8.6,0,0,1,8.34,6.68l8.3,37.42a25.48,25.48,0,0,1-11.52,27.24V68.27a8.53,8.53,0,1,0-17.06,0v58.32a18.05,18.05,0,0,1-16.22,18.48A17.08,17.08,0,0,1,315.73,128V76.8a8.53,8.53,0,0,0-17.06,0V128a17.07,17.07,0,1,1-34.13,0V76.8a8.54,8.54,0,0,0-17.07,0V128a17.07,17.07,0,0,1-34.14,0V76.8a8.53,8.53,0,0,0-17.06,0V128a17.08,17.08,0,0,1-17.92,17.07,18.05,18.05,0,0,1-16.22-18.48ZM128,145.07a34.18,34.18,0,0,1,17.07-29.51v11a34.84,34.84,0,0,0,32.37,35.54h1.79a33.82,33.82,0,0,0,23.5-9.38c.73-.7,1.43-1.42,2.09-2.16a34.15,34.15,0,0,0,51.2,0,34.15,34.15,0,0,0,51.2,0c.66.74,1.35,1.46,2.08,2.16a34.21,34.21,0,0,0,25.26,9.38,34.84,34.84,0,0,0,32.37-35.54v-11A34.18,34.18,0,0,1,384,145.07V179.2H128ZM273.07,392.54a17,17,0,0,1-8.53,14.69v-6.16a8.54,8.54,0,0,0-17.07,0v6.16a17,17,0,0,1-8.54-14.69V366.93h34.14Zm37.87-42.67H201.06a8.53,8.53,0,0,1-8.28-6.46L181.6,298.67H330.4L319.22,343.4A8.54,8.54,0,0,1,310.94,349.87Zm34.92-42.67,1.1-4.4a17.05,17.05,0,0,0-16.56-21.2H181.6A17.07,17.07,0,0,0,165,302.8l1.1,4.4H17.07V213.33a17.06,17.06,0,0,1,17.06-17.06H477.87a17.06,17.06,0,0,1,17.06,17.06V307.2Z" transform="translate(0 0)"/><path class="cls-5" d="M281.6,315.73H230.4a8.54,8.54,0,0,0,0,17.07h51.2a8.54,8.54,0,0,0,0-17.07Z" transform="translate(0 0)"/></svg>