<svg id="Layer_1" data-name="Layer 1" xmlns="http://www.w3.org/2000/svg" viewBox="0 0 512 512"><defs><style>.cls-1{fill:#dedee0;}.cls-2{fill:#c1c1c1;}.cls-3{fill:#fdfdff;}.cls-4{fill:#e0e0e0;}.cls-5{fill:#fff;}.cls-6{fill:#a4a4a5;}</style></defs><title>development</title><path class="cls-1" d="M34.13,85.33H477.87a25.6,25.6,0,0,1,25.59,25.6V409.6a25.6,25.6,0,0,1-25.59,25.6H34.13A25.6,25.6,0,0,1,8.54,409.6V110.93A25.6,25.6,0,0,1,34.13,85.33Z"/><path class="cls-2" d="M34.13,85.33H452.27a25.6,25.6,0,0,1,25.6,25.6V409.6a25.6,25.6,0,0,1-25.6,25.6H34.13A25.6,25.6,0,0,1,8.54,409.6V110.93A25.6,25.6,0,0,1,34.13,85.33Z"/><path class="cls-1" d="M145.07,469.33H366.93a25.61,25.61,0,0,1,25.61,25.6,8.54,8.54,0,0,1-8.54,8.53H128a8.54,8.54,0,0,1-8.54-8.53A25.61,25.61,0,0,1,145.07,469.33Z"/><path class="cls-2" d="M349.87,469.33H162.13L179.2,435.2H332.8Z"/><path class="cls-3" d="M452.27,119.46H59.73a17.13,17.13,0,0,0-17.06,17.08V349.87a4.62,4.62,0,0,0,.08,1.11,17,17,0,0,0,17,15.95H452.27a17.11,17.11,0,0,0,17.06-17.06V136.54A17.13,17.13,0,0,0,452.27,119.46Z"/><path class="cls-4" d="M354.05,174.6a101.14,101.14,0,0,1-7.84,19,8.54,8.54,0,0,0,.32,8.84l14.21,21.27a8.54,8.54,0,0,1-1.06,10.77l-14.25,14.25a8.54,8.54,0,0,1-10.77,1.05l-21.27-14.2a8.54,8.54,0,0,0-8.84-.33,100.7,100.7,0,0,1-19,7.85,8.56,8.56,0,0,0-6.08,6.47l-5,25.18a8.52,8.52,0,0,1-8.37,6.83H245.93a8.52,8.52,0,0,1-8.37-6.83l-5-25.15a8.53,8.53,0,0,0-6.08-6.46,100.7,100.7,0,0,1-19-7.85,8.52,8.52,0,0,0-8.84.32l-21.27,14.21a8.53,8.53,0,0,1-10.77-1.06l-14.25-14.25a8.54,8.54,0,0,1-1.06-10.77l14.21-21.26a8.54,8.54,0,0,0,.32-8.84,101.23,101.23,0,0,1-7.84-19,8.55,8.55,0,0,0-6.47-6.06l-25.19-5.06a8.54,8.54,0,0,1-6.83-8.37V135a8.56,8.56,0,0,1,6.83-8.38l25.15-5a8.53,8.53,0,0,0,6.47-6.07,100.88,100.88,0,0,1,7.85-19,8.54,8.54,0,0,0-.32-8.84L151.26,66.41a8.54,8.54,0,0,1,1.06-10.77l14.25-14.25a8.53,8.53,0,0,1,10.77-1.06l21.27,14.21a8.54,8.54,0,0,0,8.84.32,100.7,100.7,0,0,1,19-7.85,8.54,8.54,0,0,0,6.08-6.47l5-25.18a8.52,8.52,0,0,1,8.37-6.82h20.14a8.52,8.52,0,0,1,8.37,6.82l5,25.15A8.56,8.56,0,0,0,285.54,47a100.7,100.7,0,0,1,19,7.85,8.52,8.52,0,0,0,8.84-.33l21.27-14.21a8.55,8.55,0,0,1,10.77,1.06L359.68,55.6a8.54,8.54,0,0,1,1.06,10.77L346.53,87.63a8.54,8.54,0,0,0-.32,8.84,101.51,101.51,0,0,1,7.84,19,8.58,8.58,0,0,0,6.47,6.07l25.15,5A8.54,8.54,0,0,1,392.5,135V155.1a8.53,8.53,0,0,1-6.83,8.37l-25.15,5A8.55,8.55,0,0,0,354.05,174.6Z"/><path class="cls-1" d="M315.73,145.07A59.73,59.73,0,1,1,256,85.33,59.73,59.73,0,0,1,315.73,145.07Z"/><path class="cls-5" d="M264.54,145.07a8.54,8.54,0,1,1-8.54-8.53A8.54,8.54,0,0,1,264.54,145.07Z"/><path class="cls-5" d="M34.13,435.2h25.6a25.6,25.6,0,0,1-25.6-25.6V110.93a25.6,25.6,0,0,1,25.6-25.6H34.13a25.6,25.6,0,0,0-25.59,25.6V409.6A25.6,25.6,0,0,0,34.13,435.2Z"/><path class="cls-5" d="M128,503.46h25.6a8.53,8.53,0,0,1-8.53-8.53c0-18.85,15.28-25.6,34.13-25.6h8.53L204.8,435.2H179.2l-17.07,34.13H153.6c-18.85,0-34.14,6.75-34.14,25.6A8.54,8.54,0,0,0,128,503.46Z"/><path class="cls-5" d="M17.07,110.93V409.6H0V110.93Z"/><path class="cls-6" d="M8.54,153.6a8.53,8.53,0,0,0,8.53-8.53V110.93A17.06,17.06,0,0,1,34.13,93.87H128a8.54,8.54,0,1,0,0-17.07H34.13A34.13,34.13,0,0,0,0,110.93v34.14A8.53,8.53,0,0,0,8.54,153.6Z"/><path class="cls-6" d="M11.78,171.35a5.36,5.36,0,0,0-1.54-.51,10.76,10.76,0,0,0-1.7-.17,8.92,8.92,0,0,0-6.06,2.47,8.8,8.8,0,0,0,0,12.12,8.74,8.74,0,0,0,2.81,1.79,8.45,8.45,0,0,0,3.25.68,8.93,8.93,0,0,0,6.05-2.47,8.66,8.66,0,0,0,0-12.12l-1.28-1A6.28,6.28,0,0,0,11.78,171.35Z"/><path class="cls-6" d="M34.13,443.73H165.39l-8.53,17.07H153.6c-26.72,0-42.67,12.76-42.67,34.13A17.07,17.07,0,0,0,128,512H384a17.07,17.07,0,0,0,17.07-17.07c0-21.37-15.95-34.13-42.67-34.13h-3.26l-8.53-17.07H477.87A34.13,34.13,0,0,0,512,409.6V110.93A34.13,34.13,0,0,0,477.87,76.8H384a8.54,8.54,0,1,0,0,17.07h93.87a17.06,17.06,0,0,1,17.06,17.06V409.6a17.06,17.06,0,0,1-17.06,17.07H34.13A17.06,17.06,0,0,1,17.07,409.6V213.33a8.54,8.54,0,0,0-17.07,0V409.6A34.13,34.13,0,0,0,34.13,443.73ZM384,494.93H128c0-4.22,0-17.06,25.6-17.06H358.4C384,477.87,384,490.71,384,494.93Zm-56.48-51.2,8.53,17.07H175.94l8.53-17.07Z"/><path class="cls-6" d="M452.27,358.4H59.73a8.53,8.53,0,0,1-8.53-8.53V136.54A8.53,8.53,0,0,1,59.73,128h25.6a8.54,8.54,0,1,0,0-17.07H59.73a25.6,25.6,0,0,0-25.6,25.61V349.87a25.6,25.6,0,0,0,25.6,25.59H452.27a25.6,25.6,0,0,0,25.6-25.59V136.54a25.6,25.6,0,0,0-25.6-25.61h-25.6a8.54,8.54,0,1,0,0,17.07h25.6a8.53,8.53,0,0,1,8.53,8.54V349.87A8.53,8.53,0,0,1,452.27,358.4Z"/><path class="cls-5" d="M213.33,392.54a8.53,8.53,0,0,0,0,17.06h85.34a8.53,8.53,0,0,0,0-17.06Z"/><path class="cls-6" d="M365.7,49.61,351.47,35.36a17.07,17.07,0,0,0-21.56-2.08L308.58,47.37a105.84,105.84,0,0,0-20.76-8.47l-5-25.15A17.06,17.06,0,0,0,266.07,0H245.93A17.06,17.06,0,0,0,229.2,13.71L224,38.84a104.71,104.71,0,0,0-20.7,8.61L182.09,33.28a17.07,17.07,0,0,0-21.55,2.11L146.29,49.64a17.12,17.12,0,0,0-2.08,21.51l14.1,21.33a106.8,106.8,0,0,0-8.47,20.77l-25.15,5A17.13,17.13,0,0,0,110.93,135v20.15a17.12,17.12,0,0,0,13.73,16.74L149.77,177a106.09,106.09,0,0,0,8.61,20.69L144.21,219a17.13,17.13,0,0,0,2.13,21.56l14.23,14.23a17.07,17.07,0,0,0,21.55,2.12l21.34-14.09a105.84,105.84,0,0,0,20.76,8.47l5,25.15a17.05,17.05,0,0,0,16.68,13.71h20.14a17.06,17.06,0,0,0,16.73-13.71L288,251.3a105.35,105.35,0,0,0,20.7-8.62l21.25,14.21a17.06,17.06,0,0,0,21.56-2.12l14.24-14.23A17.13,17.13,0,0,0,367.83,219l-14.1-21.33A110.61,110.61,0,0,0,362.27,177l-8.18-2.43,8.14,2.3,25.16-5a17.14,17.14,0,0,0,13.68-16.73V135a17.13,17.13,0,0,0-13.73-16.74l-25.11-5.11a106.18,106.18,0,0,0-8.61-20.7l14.21-21.26A17,17,0,0,0,365.7,49.61ZM339.42,82.93a17.14,17.14,0,0,0-.73,17.61A93.17,93.17,0,0,1,345.88,118a17,17,0,0,0,13,12L384,135v20.15l-25.14,5a17,17,0,0,0-13,12,93.66,93.66,0,0,1-7.19,17.43,17.07,17.07,0,0,0,.74,17.61l14.21,21.25L339.39,242.7l-21.25-14.2a17.14,17.14,0,0,0-17.61-.75,93.08,93.08,0,0,1-17.44,7.19,17.1,17.1,0,0,0-11.94,13l-5.08,25.15H245.93l-5-25.16a17.11,17.11,0,0,0-12-13,92.47,92.47,0,0,1-17.42-7.18,17.57,17.57,0,0,0-8.25-2.09,16.82,16.82,0,0,0-9.38,2.84l-21.26,14.2-14.24-14.24,14.21-21.26a17.14,17.14,0,0,0,.74-17.61,92.23,92.23,0,0,1-7.19-17.42,17.06,17.06,0,0,0-13-12l-25.11-5V135l25.14-5a17,17,0,0,0,13-12,94.22,94.22,0,0,1,7.19-17.43,17.05,17.05,0,0,0-.74-17.6L158.36,61.67l14.25-14.24,21.25,14.21a17.09,17.09,0,0,0,17.61.75,91.76,91.76,0,0,1,17.44-7.19,17.1,17.1,0,0,0,12-13l5-25.14h20.14l5,25.15a17.09,17.09,0,0,0,12,13,93.13,93.13,0,0,1,17.42,7.18,17.07,17.07,0,0,0,17.61-.74l21.25-14.21,14.25,14.24Z"/><path class="cls-6" d="M256,76.8a68.27,68.27,0,1,0,68.27,68.27A68.27,68.27,0,0,0,256,76.8Zm0,119.47a51.2,51.2,0,1,1,51.2-51.2A51.2,51.2,0,0,1,256,196.27Z"/></svg>